<?xml version="1.0" encoding="UTF-8"?>
<svg id="Capa_2" data-name="Capa 2" xmlns="http://www.w3.org/2000/svg" viewBox="0 0 255.88 51.39">
  <defs>
    <style>
      .cls-1 {
        fill: #303031;
      }
    </style>
  </defs>
  <g id="Capa_1-2" data-name="Capa 1">
    <g>
      <g>
        <path class="cls-1" d="m136.99,13.58c-3.56,0-6.26-2.73-6.26-6.31s2.7-6.34,6.26-6.34c2.95,0,5.31,1.95,5.87,4.83h-2.63c-.5-1.43-1.71-2.33-3.24-2.33-2.05,0-3.6,1.65-3.6,3.83s1.55,3.81,3.6,3.81c1.6,0,2.83-.96,3.26-2.5h2.64c-.55,3-2.9,5-5.91,5h0Z"/>
        <path class="cls-1" d="m152.08,10.87v2.44h-7.47V1.19h7.28v2.42h-4.66v2.4h4.21v2.37h-4.21v2.49h4.85Z"/>
        <path class="cls-1" d="m164.38,1.19v12.13h-2.19l-5.49-7.58v7.58h-2.58V1.19h2.37l5.32,7.4V1.19h2.57Z"/>
        <path class="cls-1" d="m175.34,3.62h-3.37v9.69h-2.62V3.62h-3.37V1.19h9.37v2.43Z"/>
        <path class="cls-1" d="m181.23,9.18h-1.68v4.14h-2.62V1.19h4.89c2.43,0,4.24,1.67,4.24,4.01,0,1.59-.87,2.88-2.21,3.53l2.68,4.59h-2.93l-2.37-4.14Zm-1.68-2.42h2.1c1.1,0,1.75-.66,1.75-1.57s-.65-1.57-1.75-1.57h-2.1v3.14Z"/>
        <path class="cls-1" d="m187.38,7.25c0-3.6,2.77-6.33,6.47-6.33s6.44,2.71,6.44,6.33-2.76,6.33-6.44,6.33-6.47-2.73-6.47-6.33Zm10.26,0c0-2.2-1.62-3.85-3.78-3.85s-3.81,1.67-3.81,3.85,1.65,3.85,3.81,3.85,3.78-1.65,3.78-3.85Z"/>
        <path class="cls-1" d="m216.89,7.24c0,3.52-2.6,6.08-6.15,6.08h-4.59V1.19h4.59c3.57,0,6.15,2.55,6.15,6.05Zm-2.69,0c0-2.13-1.45-3.61-3.53-3.61h-1.9v7.26h1.9c2.08,0,3.53-1.52,3.53-3.64Z"/>
        <path class="cls-1" d="m226.29,10.87v2.44h-7.47V1.19h7.28v2.42h-4.66v2.4h4.21v2.37h-4.21v2.49h4.85Z"/>
        <path class="cls-1" d="m131.43,19.88h2.62v12.13h-2.62v-12.13Z"/>
        <path class="cls-1" d="m146.92,19.88v12.13h-2.19l-5.49-7.58v7.58h-2.57v-12.13h2.37l5.32,7.4v-7.4h2.58Z"/>
        <path class="cls-1" d="m159.78,19.88v12.13h-2.19l-5.49-7.58v7.58h-2.57v-12.13h2.37l5.32,7.4v-7.4h2.58Z"/>
        <path class="cls-1" d="m161.66,25.94c0-3.6,2.77-6.33,6.47-6.33s6.44,2.71,6.44,6.33-2.76,6.33-6.44,6.33-6.47-2.73-6.47-6.33Zm10.26,0c0-2.2-1.62-3.85-3.78-3.85s-3.81,1.67-3.81,3.85,1.65,3.85,3.81,3.85,3.78-1.65,3.78-3.85Z"/>
        <path class="cls-1" d="m186.51,19.88l-4.59,12.13h-2.47l-4.74-12.13h2.9l3.07,8.57,2.98-8.57h2.86Z"/>
        <path class="cls-1" d="m194.02,29.71h-4.83l-.83,2.3h-2.78l4.75-12.13h2.48l4.91,12.13h-2.85l-.85-2.3Zm-4.01-2.29h3.18l-1.6-4.34-1.58,4.34Z"/>
        <path class="cls-1" d="m204.14,32.27c-3.56,0-6.26-2.73-6.26-6.31s2.7-6.34,6.26-6.34c2.95,0,5.31,1.95,5.87,4.83h-2.63c-.5-1.43-1.71-2.33-3.24-2.33-2.05,0-3.6,1.65-3.6,3.83s1.55,3.81,3.6,3.81c1.6,0,2.83-.96,3.26-2.5h2.64c-.55,3-2.9,5-5.91,5h0Z"/>
        <path class="cls-1" d="m211.77,19.88h2.62v12.13h-2.62v-12.13Z"/>
        <path class="cls-1" d="m216.28,25.94c0-3.6,2.77-6.33,6.47-6.33s6.44,2.71,6.44,6.33-2.76,6.33-6.44,6.33-6.47-2.73-6.47-6.33Zm10.26,0c0-2.2-1.62-3.85-3.78-3.85s-3.81,1.67-3.81,3.85,1.65,3.85,3.81,3.85,3.78-1.65,3.78-3.85Zm-3.86-9.69h2.69l-1.74,2.46h-1.91l.96-2.46Z"/>
        <path class="cls-1" d="m241.34,19.88v12.13h-2.19l-5.49-7.58v7.58h-2.57v-12.13h2.37l5.32,7.4v-7.4h2.58Z"/>
        <path class="cls-1" d="m139.79,41h-3.37v9.69h-2.62v-9.69h-3.37v-2.43h9.37v2.43Z"/>
        <path class="cls-1" d="m148.84,48.25v2.44h-7.47v-12.13h7.28v2.42h-4.66v2.4h4.21v2.37h-4.21v2.49h4.85Z"/>
        <path class="cls-1" d="m156.25,50.96c-3.56,0-6.26-2.73-6.26-6.31s2.7-6.34,6.26-6.34c2.95,0,5.31,1.95,5.87,4.83h-2.63c-.5-1.43-1.71-2.33-3.24-2.33-2.05,0-3.6,1.65-3.6,3.83s1.55,3.81,3.6,3.81c1.6,0,2.83-.96,3.26-2.5h2.64c-.55,3-2.9,5-5.91,5h0Z"/>
        <path class="cls-1" d="m174.14,38.57v12.13h-2.19l-5.49-7.58v7.58h-2.58v-12.13h2.37l5.32,7.4v-7.4h2.57Z"/>
        <path class="cls-1" d="m176.02,44.63c0-3.6,2.77-6.33,6.47-6.33s6.44,2.71,6.44,6.33-2.76,6.33-6.44,6.33-6.47-2.73-6.47-6.33Zm10.26,0c0-2.2-1.62-3.85-3.78-3.85s-3.81,1.67-3.81,3.85,1.65,3.85,3.81,3.85,3.78-1.65,3.78-3.85Z"/>
        <path class="cls-1" d="m198.1,48.26v2.43h-7.28v-12.13h2.62v9.69h4.65Z"/>
        <path class="cls-1" d="m198.52,44.63c0-3.6,2.77-6.33,6.47-6.33s6.44,2.71,6.44,6.33-2.76,6.33-6.44,6.33-6.47-2.73-6.47-6.33Zm10.26,0c0-2.2-1.62-3.85-3.78-3.85s-3.81,1.67-3.81,3.85,1.65,3.85,3.81,3.85,3.78-1.65,3.78-3.85Zm-3.86-9.69h2.69l-1.74,2.46h-1.91l.96-2.46Z"/>
        <path class="cls-1" d="m225.1,44.36c-.01,3.8-2.55,6.6-6.19,6.6s-6.28-2.68-6.28-6.31,2.64-6.34,6.23-6.34c3.01,0,5.52,1.91,6.08,4.62h-2.7c-.52-1.3-1.8-2.12-3.33-2.12-2.15,0-3.62,1.57-3.62,3.83s1.44,3.81,3.62,3.81c1.57,0,2.93-.83,3.37-2.08h-3.63v-2.01h6.45Z"/>
        <path class="cls-1" d="m226.96,38.57h2.62v12.13h-2.62v-12.13Z"/>
        <path class="cls-1" d="m237.75,50.96c-3.56,0-6.26-2.73-6.26-6.31s2.7-6.34,6.26-6.34c2.95,0,5.31,1.95,5.87,4.83h-2.63c-.5-1.43-1.71-2.33-3.24-2.33-2.05,0-3.6,1.65-3.6,3.83s1.55,3.81,3.6,3.81c1.6,0,2.83-.96,3.26-2.5h2.64c-.55,3-2.9,5-5.91,5h0Z"/>
        <path class="cls-1" d="m252.18,48.4h-4.83l-.83,2.3h-2.78l4.75-12.13h2.48l4.91,12.13h-2.85l-.85-2.3Zm-4.01-2.29h3.18l-1.6-4.34-1.58,4.34Z"/>
      </g>
      <g>
        <path class="cls-1" d="m26.01,51.39C11.12,51.39,0,40.37,0,25.74S11.12,0,26.01,0c12.5,0,22.26,8.05,24.58,19.95.09.47-.27.92-.75.92h-9.1c-1.99,0-3.86-1.02-4.9-2.72-2.1-3.44-5.65-5.56-9.8-5.56-6.93,0-12.01,5.57-12.01,13.14s5.08,13.04,12.01,13.04c4.34,0,7.93-2.26,9.9-5.93,1-1.87,2.96-3.04,5.08-3.04h8.96c.48,0,.84.43.76.9-2.19,12.37-12.01,20.69-24.73,20.69h0Z"/>
        <path class="cls-1" d="m115.63,13.37h-11.02c-.41,0-.74.33-.74.74v25.34c0,1.86-.9,3.61-2.41,4.7l-8.72,6.27c-1.01.72-2.41,0-2.41-1.23V14.11c0-.41-.33-.74-.74-.74h-11.03c-.84,0-1.52-.68-1.52-1.52V2.76c0-.84.68-1.52,1.52-1.52h37.07c.84,0,1.52.68,1.52,1.52v9.09c0,.84-.68,1.52-1.52,1.52Z"/>
        <path class="cls-1" d="m70.99,11.85V2.22c0-1.25-1.41-1.97-2.43-1.24l-8.82,6.34c-1.51,1.09-2.41,2.83-2.41,4.7v37.18c0,1.24,1.4,1.96,2.41,1.24l8.84-6.35c1.51-1.09,2.41-2.84,2.41-4.7v-17.9c0-.4-.16-.79-.44-1.07l-5.67-5.72c-.48-.49-.14-1.32.55-1.32h4.04c.84,0,1.52-.68,1.52-1.52Z"/>
      </g>
    </g>
  </g>
</svg>