<?xml version="1.0" encoding="UTF-8"?>
<svg id="Capa_2" data-name="Capa 2" xmlns="http://www.w3.org/2000/svg" viewBox="0 0 111.09 61.71">
  <defs>
    <style>
      .cls-1 {
        fill: #fff;
      }
    </style>
  </defs>
  <g id="Capa_1-2" data-name="Capa 1">
    <g>
      <path class="cls-1" d="m22.12,0v26.91h-4.34L5.1,8.58h-.22v18.33H0V0h4.36l12.67,18.34h.24V0h4.85Z"/>
      <path class="cls-1" d="m31.16,27.32c-1.28,0-2.43-.23-3.45-.69-1.02-.46-1.83-1.14-2.42-2.04-.59-.9-.89-2.02-.89-3.34,0-1.14.21-2.08.63-2.83.42-.74.99-1.34,1.72-1.79.73-.45,1.55-.79,2.46-1.02.92-.23,1.86-.4,2.85-.51,1.18-.12,2.14-.23,2.88-.33.74-.1,1.27-.26,1.61-.47.34-.21.51-.55.51-1v-.08c0-.99-.29-1.76-.88-2.3s-1.43-.81-2.54-.81c-1.17,0-2.09.25-2.77.76-.68.51-1.14,1.11-1.37,1.8l-4.44-.63c.35-1.23.93-2.25,1.73-3.08.81-.83,1.79-1.45,2.96-1.87s2.45-.62,3.86-.62c.97,0,1.94.11,2.9.34.96.23,1.84.6,2.64,1.12.8.52,1.44,1.23,1.92,2.12s.73,2.01.73,3.35v13.51h-4.57v-2.77h-.16c-.29.56-.69,1.08-1.22,1.57-.52.49-1.17.88-1.96,1.17s-1.7.44-2.75.44Zm1.24-3.5c.96,0,1.78-.19,2.48-.57.7-.38,1.24-.89,1.62-1.52s.57-1.32.57-2.06v-2.38c-.15.12-.4.24-.75.34-.36.11-.75.2-1.19.28-.44.08-.87.15-1.3.21-.43.06-.8.11-1.12.16-.71.1-1.34.25-1.91.47-.56.22-1,.52-1.33.91-.32.39-.49.89-.49,1.5,0,.88.32,1.54.96,1.98s1.45.67,2.44.67Z"/>
      <path class="cls-1" d="m49.52,15.09v11.83h-4.76V0h4.65v10.16h.24c.47-1.14,1.21-2.04,2.2-2.7.99-.66,2.26-.99,3.8-.99,1.4,0,2.62.29,3.67.88,1.04.59,1.85,1.45,2.42,2.58.57,1.13.86,2.51.86,4.14v12.85h-4.76v-12.12c0-1.36-.35-2.42-1.04-3.17-.7-.76-1.67-1.14-2.92-1.14-.84,0-1.59.18-2.25.54-.66.36-1.18.89-1.55,1.57-.37.68-.56,1.51-.56,2.48Z"/>
      <path class="cls-1" d="m78.46,18.42V6.73h4.76v20.18h-4.61v-3.59h-.21c-.46,1.13-1.2,2.05-2.24,2.77-1.04.72-2.31,1.08-3.83,1.08-1.32,0-2.49-.3-3.5-.89s-1.8-1.45-2.37-2.59c-.57-1.13-.85-2.51-.85-4.12V6.73h4.76v12.12c0,1.28.35,2.3,1.05,3.05s1.62,1.13,2.76,1.13c.7,0,1.38-.17,2.04-.51.66-.34,1.2-.85,1.62-1.53.42-.68.64-1.53.64-2.56Z"/>
      <path class="cls-1" d="m95.19,27.31c-2.02,0-3.77-.42-5.24-1.27-1.47-.85-2.6-2.05-3.38-3.6-.79-1.56-1.18-3.39-1.18-5.5s.4-3.9,1.19-5.47c.79-1.57,1.9-2.8,3.33-3.68,1.43-.88,3.11-1.32,5.03-1.32,1.24,0,2.42.2,3.53.6,1.11.4,2.09,1.01,2.94,1.85.85.83,1.53,1.89,2.02,3.17.49,1.28.74,2.81.74,4.58v1.46h-16.54v-3.21h11.98c0-.91-.21-1.72-.59-2.44s-.92-1.28-1.61-1.69-1.49-.62-2.4-.62c-.97,0-1.83.23-2.56.7-.74.47-1.31,1.08-1.71,1.84-.41.76-.62,1.59-.62,2.49v2.8c0,1.17.21,2.18.64,3.02.43.84,1.03,1.48,1.8,1.92.77.44,1.67.66,2.71.66.69,0,1.32-.1,1.88-.3.56-.2,1.05-.49,1.46-.87.41-.39.72-.86.93-1.43l4.44.5c-.28,1.17-.81,2.2-1.6,3.07-.78.87-1.79,1.55-3,2.02-1.22.48-2.61.72-4.18.72Z"/>
      <path class="cls-1" d="m111.09,0v26.91h-4.76V0h4.76Z"/>
      <path class="cls-1" d="m0,57.91v-26.91h10.3c1.95,0,3.56.3,4.86.91s2.26,1.44,2.9,2.49.97,2.24.97,3.57c0,1.1-.21,2.03-.63,2.81-.42.78-.99,1.4-1.7,1.89-.71.48-1.5.83-2.38,1.04v.26c.95.05,1.87.34,2.75.87.88.53,1.6,1.28,2.16,2.24.56.96.84,2.13.84,3.5s-.34,2.64-1.01,3.75c-.67,1.11-1.69,1.98-3.05,2.62-1.36.64-3.07.96-5.12.96H0Zm4.88-15.47h4.82c.84,0,1.6-.16,2.27-.47s1.21-.75,1.6-1.33.58-1.25.58-2.04c0-1.04-.37-1.9-1.1-2.58-.73-.67-1.82-1.01-3.25-1.01h-4.93v7.42Zm0,11.39h5.24c1.77,0,3.05-.34,3.83-1.02s1.18-1.55,1.18-2.62c0-.8-.2-1.52-.59-2.16s-.96-1.15-1.68-1.52c-.73-.37-1.59-.56-2.6-.56h-5.38v7.88Z"/>
      <path class="cls-1" d="m31.2,58.31c-2.02,0-3.77-.42-5.24-1.27-1.47-.85-2.6-2.05-3.38-3.6-.79-1.56-1.18-3.39-1.18-5.5s.4-3.9,1.19-5.47c.79-1.57,1.9-2.8,3.33-3.68,1.43-.88,3.11-1.32,5.03-1.32,1.24,0,2.42.2,3.53.6,1.11.4,2.09,1.01,2.94,1.85.85.83,1.53,1.89,2.02,3.17.49,1.28.74,2.81.74,4.58v1.46h-16.54v-3.21h11.98c0-.91-.21-1.72-.59-2.44s-.92-1.28-1.61-1.69-1.49-.62-2.4-.62c-.97,0-1.83.23-2.56.7-.74.47-1.31,1.08-1.71,1.84-.41.76-.62,1.59-.62,2.49v2.8c0,1.17.21,2.18.64,3.02.43.84,1.03,1.48,1.8,1.92.77.44,1.67.66,2.71.66.69,0,1.32-.1,1.88-.3.56-.2,1.05-.49,1.46-.87.41-.39.72-.86.93-1.43l4.44.5c-.28,1.17-.81,2.2-1.6,3.07-.78.87-1.79,1.55-3,2.02-1.22.48-2.61.72-4.18.72Z"/>
      <path class="cls-1" d="m51.15,58.31c-2.01,0-3.74-.44-5.18-1.33-1.44-.88-2.55-2.11-3.32-3.67-.78-1.56-1.16-3.37-1.16-5.41s.39-3.86,1.18-5.43c.79-1.57,1.9-2.8,3.34-3.68s3.15-1.32,5.12-1.32c1.64,0,3.09.3,4.36.9,1.27.6,2.28,1.45,3.03,2.54.75,1.09,1.18,2.36,1.29,3.82h-4.55c-.18-.97-.62-1.78-1.31-2.44-.69-.65-1.6-.98-2.75-.98-.97,0-1.83.26-2.56.78-.74.52-1.31,1.27-1.71,2.24-.41.97-.61,2.14-.61,3.5s.2,2.56.6,3.54c.4.99.97,1.74,1.7,2.27.73.53,1.59.79,2.58.79.7,0,1.33-.13,1.89-.4.56-.27,1.02-.65,1.4-1.16.38-.51.64-1.13.78-1.85h4.55c-.11,1.43-.53,2.69-1.26,3.79-.73,1.1-1.72,1.96-2.97,2.58s-2.72.93-4.42.93Z"/>
      <path class="cls-1" d="m61.86,57.91v-26.91h4.76v26.91h-4.76Zm4.34-6.33v-5.74s.75,0,.75,0l7.25-8.11h5.56l-8.92,9.93h-.99l-3.65,3.92Zm8.33,6.33l-6.57-9.19,3.21-3.35,9.05,12.54h-5.69Z"/>
      <path class="cls-1" d="m103.31,57.91v3.8h-17.38v-3.8h17.38Z"/>
    </g>
  </g>
</svg>