<?xml version="1.0" encoding="UTF-8"?>
<svg id="Capa_2" data-name="Capa 2" xmlns="http://www.w3.org/2000/svg" viewBox="0 0 83.27 22.79">
  <defs>
    <style>
      .cls-1 {
        fill: none;
        stroke: #696969;
        stroke-miterlimit: 10;
        stroke-width: .73px;
      }
    </style>
  </defs>
  <g id="Capa_1-2" data-name="Capa 1">
    <g>
      <polygon class="cls-1" points="4.19 22.27 8.12 18.34 12.05 22.27 15.72 18.59 11.79 14.66 15.72 10.74 12.05 7.06 8.12 10.99 4.19 7.06 .52 10.74 4.45 14.66 .52 18.59 4.19 22.27"/>
      <polygon class="cls-1" points="77.62 .66 72.44 .39 72.15 5.93 66.6 5.64 66.32 10.83 71.87 11.12 71.58 16.67 76.77 16.94 77.06 11.39 82.61 11.68 82.88 6.5 77.33 6.21 77.62 .66"/>
      <polygon class="cls-1" points="59.13 6.35 57.12 5.06 55.38 3.42 52.99 3.55 50.61 3.25 48.76 4.76 46.66 5.92 46.05 8.23 45.03 10.4 45.9 12.63 46.35 14.98 48.36 16.27 50.1 17.91 52.49 17.78 54.87 18.08 56.72 16.56 58.82 15.41 59.43 13.1 60.44 10.93 59.58 8.7 59.13 6.35"/>
      <path class="cls-1" d="m25.45,17.25c.72.78,1.25.28,1.98,1.06.72.78.2,1.27.92,2.05.72.78.66.91,1.73.95,1.06.04,1.01-.1,1.79-.82.78-.72.29-1.25,1.06-1.98.78-.72,1.27-.2,2.05-.92.78-.72.29-1.25,1.06-1.98.78-.73,1.27-.2,2.05-.92.78-.73.91-.66.95-1.73.04-1.06-.1-1.01-.82-1.79-.72-.78-1.25-.28-1.97-1.06-.72-.78-.2-1.27-.92-2.04-.72-.78-1.25-.28-1.98-1.06-.72-.78-.29-1.13-.89-2-.56-.83-.7-.95-1.76-.99-1.06-.04-1.01.1-1.79.82-.78.72-.29,1.25-1.06,1.98-.78.72-1.27.2-2.05.92-.78.72-.29,1.25-1.06,1.98-.78.73-1.27.2-2.05.92-.78.73-.91.66-.95,1.73-.04,1.06.1,1.01.82,1.79.72.78,1.25.28,1.97,1.06.72.78.2,1.27.92,2.04Z"/>
    </g>
  </g>
</svg>